# xmcd
#
# Track frame offsets:
#	150
#	24040
#	47428
#	64000
#	81052
#	108880
#	129076
#
# Disc length: 4220 seconds
#
# Revision: 0
# Processed by: cddbd v1.5.2PL0 Copyright (c) Steve Scherf et al.
# Submitted via: EasyCDDAExtractor 9.0.0.1
#
DISCID=41107a07
DTITLE=Dio  - Palladium Worcester MA 08-12-00 Master Disc 1
DYEAR=2000
DGENRE=Hard Rock
TTITLE0=Sunset Superman
TTITLE1=Invisible
TTITLE2=Drum Solo
TTITLE3=Stand Up And Shout
TTITLE4=Don't Talk To Strangers
TTITLE5=All The Fools Sailed Away
TTITLE6=Magica
EXTD=
EXTT0=
EXTT1=
EXTT2=
EXTT3=
EXTT4=
EXTT5=
EXTT6=
PLAYORDER=
